<svg height="12" viewBox="0 0 21 12" width="21" xmlns="http://www.w3.org/2000/svg"><path d="m34.6950131 14.81062c.140122-.4672678.0000001-.81062-.6668896-.81062h-2.2052452c-.5607213 0-.8192218.296606-.9594215.623674 0 0-1.1214425 2.7334869-2.7101139 4.5090653-.513975.5139751-.7476283.677509-1.0279889.677509-.1401609 0-.4713115-.1310114-.4713115-.5982402v-4.3546808c0-.5607213-.0344882-.8573273-.5017948-.8573273h-3.4653853c-.3504022 0-.5611368.2602435-.5611368.5068862 0 .5315535.7942968.6541359.8761718 2.1493926v3.247462c0 .7119948-.1285823.8410818-.408943.8410818-.7475894 0-2.5661028-2.7456985-3.6446492-5.8874953-.2113691-.6106565-.4233691-.8573273-.9869682-.8573273h-2.2052452c-.6300701 0-.7560918.296606-.7560918.623674 0 .5840943.7476283 3.4811152 3.4810764 7.3126327 1.8222857 2.6166214 4.3897666 4.0350244 6.7260663 4.0350244 1.4017642 0 1.4468998-.2228669 1.4468998-.7655137v-2.0848032c0-.6300701.2610702-.7408129.7049648-.7408129.3270679 0 .8877892.163534 2.1961388 1.4251373 1.4952177 1.4952178 1.7417242 2.1659925 2.5827672 2.1659925h2.2052452c.6300701 0 .9451051-.315035.7633663-.936739-.1988768-.6196268-.9127626-1.5186228-1.8600222-2.5843104-.5140139-.6074286-1.2849764-1.2615645-1.5186297-1.5887102-.327068-.4204826-.2336145-.6074286 0-.9812038 0 0 2.6867796-3.7848102 2.9671402-5.0697477z" fill="#fff" fill-rule="evenodd" transform="translate(-15 -14)"/></svg>