<svg height="16" viewBox="0 0 16 16" width="16" xmlns="http://www.w3.org/2000/svg"><g fill="none" fill-rule="evenodd"><rect fill="#6089bf" height="16" rx="3" width="16"/><path d="m12.8475065 5.90530998c.070061-.23363386.0000001-.40530998-.3334448-.40530998h-1.1026226c-.2803606 0-.4096108.14830302-.4797107.31183699 0 0-.5607213 1.36674347-1.35505693 2.25453267-.25698752.25698752-.37381417.3387545-.51399448.3387545-.07008043 0-.23565574-.06550569-.23565574-.2991201v-2.17734041c0-.28036063-.01724408-.42866365-.25089738-.42866365h-1.73269266c-.17520109 0-.2805684.13012177-.2805684.25344311 0 .26577674.39714838.32706795.43808591 1.07469629v1.62373098c0 .35599743-.06429119.42054094-.2044715.42054094-.37379473 0-1.28305141-1.37284925-1.82232462-2.94374768-.10568456-.30532824-.21168455-.42866364-.49348411-.42866364h-1.10262261c-.31503503 0-.37804588.14830302-.37804588.31183699 0 .29204718.37381417 1.74055763 1.74053819 3.65631635.91114286 1.30831066 2.19488331 2.01751226 3.36303314 2.01751226.70088212 0 .72344992-.1114335.72344992-.3827569v-1.0424016c0-.31503503.13053509-.37040646.35248239-.37040646.16353398 0 .4438946.08176699 1.09806936.71256866.7476089.7476089.8708622 1.0829963 1.2913837 1.0829963h1.1026226c.315035 0 .4725525-.1575175.3816831-.4683695-.0994384-.3098135-.4563813-.7593114-.9300111-1.29215524-.2570069-.30371429-.6424882-.63078224-.7593149-.79435511-.1635339-.2102413-.1168072-.30371429 0-.49060192 0 0 1.3433898-1.89240506 1.4835701-2.53487385z" fill="#fff"/></g></svg>