<svg height="24" viewBox="0 0 24 24" width="24" xmlns="http://www.w3.org/2000/svg"><g fill="none" fill-rule="evenodd"><path d="m0 0h24v24h-24z"/><path d="m20.0291094 15.0279907-5.384726 5.2303888c-2.5877049 2.513536-6.71408829 2.4838066-9.26530792-.0667538-2.6116233-2.6109485-2.61217034-6.8446794-.00122186-9.4563027.00760974-.0076117.01523784-.015205.02288425-.0227799l8.06657363-7.99110563c1.7601202-1.7436532 4.6004898-1.73030402 6.344143.02981623.0091252.00921136.0182104.01846224.0272554.02775238 1.7500823 1.79751906 1.7306631 4.66777042-.0435807 6.44144506l-8.1308667 8.12825806c-.8479169.8476448-2.20023168.9147308-3.12787932.1551687l-.1337127-.1094846c-.8947528-.7326277-1.02618115-2.0518803-.29355343-2.9466331.03855837-.047091.0791516-.0924786.12166404-.1360332l5.46733261-5.60136864" stroke="#828a99" stroke-linecap="round" stroke-linejoin="round" stroke-width="1.8"/></g></svg>