<svg height="24" viewBox="254 9 24 24" width="24" xmlns="http://www.w3.org/2000/svg"><g fill="none" fill-rule="evenodd" transform="translate(254 9)"><path d="m0 0h24v24h-24z"/><path d="m12 19.5c4.1421356 0 7.5-3.3578644 7.5-7.5 0-4.14213562-3.3578644-7.5-7.5-7.5-4.14213562 0-7.5 3.35786438-7.5 7.5 0 4.1421356 3.35786438 7.5 7.5 7.5zm0 1.5c-4.97056275 0-9-4.0294373-9-9 0-4.97056275 4.02943725-9 9-9 4.9705627 0 9 4.02943725 9 9 0 4.9705627-4.0294373 9-9 9zm-3.03635594-4.8986908c.73766523.5424647 1.74156284.8588562 3.03635594.8588562s2.2986907-.3163915 3.0363559-.8588562c.4774908-.3511374.7604812-.7257275.8931188-1.0183448.1646535-.363249.0705255-1.0829644.0705255-1.0829644h-8.00000021s-.09412814.7197154.07052535 1.0829644c.13263757.2926173.41562791.6672074.89311872 1.0183448zm.03635594-4.1033844c.55228475 0 1-.6715729 1-1.5 0-.82842712-.44771525-1.5-1-1.5s-1 .67157288-1 1.5c0 .8284271.44771525 1.5 1 1.5zm6 0c.5522847 0 1-.6715729 1-1.5 0-.82842712-.4477153-1.5-1-1.5s-1 .67157288-1 1.5c0 .8284271.4477153 1.5 1 1.5z" fill="#828a99"/></g></svg>