<svg height="24" viewBox="286 9 24 24" width="24" xmlns="http://www.w3.org/2000/svg"><g fill="none" fill-rule="evenodd" transform="translate(286 9)"><path d="m0 0h24v24h-24z"/><path d="m12.393866 6.34205011c1.4269572-1.36929385 3.7384988-1.36929385 5.165456 0 1.4269573 1.36929385 1.4269573 3.58742597 0 4.95671979l-8.07102499 7.7448747c-.89104116.8550342-2.33736884.8550342-3.22841 0-.89104117-.8550341-.89104117-2.2429157 0-3.0979498l6.77966099-6.5056948c.3551251-.34077449.9362389-.34077449 1.291364 0s.3551251.8984055 0 1.23918l-6.13397899 5.8861047.968523.929385 6.13397899-5.8861048c.8910412-.8550341.8910412-2.2429157 0-3.09794987-.8910411-.85503416-2.3373688-.85503416-3.22841 0l-6.779661 6.50569477c-1.42695722 1.3692938-1.42695722 3.587426 0 4.9567198 1.42695723 1.3692939 3.73849879 1.3692939 5.165456 0l8.071025-7.7448747c1.9628733-1.8835535 1.9628733-4.93193622 0-6.81548975-1.9628732-1.88355353-5.1396287-1.88355353-7.102502 0l-7.425343 7.12528475.968523.929385z" fill="#828a99" transform="matrix(-1 0 0 -1 24 25)"/></g></svg>